<svg width="15" height="15" viewBox="0 0 15 15" fill="none" xmlns="http://www.w3.org/2000/svg">
<path d="M13.2542 6.08349L8.94284 6.06798L8.95836 1.75656C8.96026 1.22752 8.53276 0.796929 8.00372 0.795025L7.04564 0.791577C6.5166 0.789673 6.08602 1.21717 6.08411 1.74622L6.0686 6.05763L1.75723 6.04212C1.22819 6.04021 0.797608 6.46771 0.795704 6.99676L0.792256 7.95485C0.790352 8.4839 1.21785 8.91449 1.74689 8.91639L6.05825 8.93191L6.04274 13.2433C6.04083 13.7724 6.46833 14.203 6.99737 14.2049L7.95545 14.2083C8.48449 14.2102 8.91508 13.7827 8.91698 13.2537L8.9325 8.94225L13.2439 8.95777C13.7729 8.95967 14.2035 8.53217 14.2054 8.00312L14.2088 7.04503C14.2107 6.51598 13.7832 6.08539 13.2542 6.08349Z" fill="white"/>
</svg>
