<svg width="36" height="36" viewBox="0 0 36 36" fill="none" xmlns="http://www.w3.org/2000/svg">
<rect width="36" height="36" rx="18" fill="#4DBAE9"/>
<path d="M19.25 10H25.25C25.6642 10 26 10.3838 26 10.8571V16.5714C26 17.0448 25.6642 17.4286 25.25 17.4286H19.25C18.8358 17.4286 18.5 17.0448 18.5 16.5714V10.8571C18.5 10.3838 18.8358 10 19.25 10ZM16.75 10H10.75C10.3358 10 10 10.3838 10 10.8571V16.5714C10 17.0448 10.3358 17.4286 10.75 17.4286H16.75C17.1642 17.4286 17.5 17.0448 17.5 16.5714V10.8571C17.5 10.3838 17.1642 10 16.75 10ZM10 19.4286V25.1429C10 25.6163 10.3358 26 10.75 26H16.75C17.1642 26 17.5 25.6163 17.5 25.1429V19.4286C17.5 18.9552 17.1642 18.5714 16.75 18.5714H10.75C10.3358 18.5714 10 18.9552 10 19.4286ZM19.25 26H25.25C25.6642 26 26 25.6163 26 25.1429V19.4286C26 18.9552 25.6642 18.5714 25.25 18.5714H19.25C18.8358 18.5714 18.5 18.9552 18.5 19.4286V25.1429C18.5 25.6163 18.8358 26 19.25 26Z" fill="#1A202C"/>
</svg>
