<svg width="29" height="29" viewBox="0 0 29 29" fill="none" xmlns="http://www.w3.org/2000/svg">
<path d="M14.0831 17.6269C18.7967 17.6269 22.6178 13.8057 22.6178 9.09211C22.6178 4.37851 18.7967 0.557373 14.0831 0.557373C9.36947 0.557373 5.54834 4.37851 5.54834 9.09211C5.54834 13.8057 9.36947 17.6269 14.0831 17.6269Z" fill="#00AED6"/>
<path fill-rule="evenodd" clip-rule="evenodd" d="M19.0619 8.84313C18.9908 7.77629 18.0662 6.92281 16.9993 6.99394H11.594C11.3806 6.99394 11.2384 6.85169 11.2384 6.63832C11.2384 6.42495 11.3806 6.28271 11.594 6.28271H17.0704C17.0349 5.57148 16.5015 4.82469 15.8258 4.71801C14.2255 4.43352 12.5897 4.43352 11.025 4.71801C10.136 4.86025 9.46029 5.74929 9.31805 6.60276C9.06912 8.27415 9.06912 9.9811 9.31805 11.6525C9.49585 12.6126 10.2782 13.395 11.2739 13.5372C13.2654 13.7862 15.2568 13.7862 17.2127 13.5372C18.1017 13.4306 18.6707 12.6126 18.8485 11.7592C19.0263 10.7634 19.0974 9.80329 19.0619 8.84313ZM17.2838 10.0167V10.3367C17.2838 10.5501 17.1416 10.6923 16.9282 10.6923C16.7148 10.6923 16.5726 10.5501 16.5726 10.3367V10.0167C16.4659 9.90997 16.3948 9.76773 16.3948 9.62548C16.3948 9.34099 16.6437 9.09206 16.9282 9.09206C17.2127 9.09206 17.4616 9.34099 17.4616 9.62548C17.4616 9.76773 17.3905 9.90997 17.2838 10.0167Z" fill="white"/>
<path d="M1.20995 26.1616C1.56557 26.6951 2.17011 26.9795 2.81022 26.944C3.55701 26.944 4.09043 26.4817 4.09043 25.8416V25.486C3.69925 25.8771 3.13027 26.0905 2.56129 26.0549C1.17439 26.0905 0.0364251 25.0237 0.00086367 23.6368C-0.0346978 22.2499 1.03214 21.1119 2.41904 21.0763C2.4546 21.0763 2.49016 21.0763 2.52572 21.0763C3.09471 21.0408 3.66369 21.2542 4.09043 21.6453V21.183H5.37064V25.806C5.37064 27.1573 4.3038 28.0819 2.81022 28.0819C1.8145 28.1531 0.889898 27.7263 0.249793 26.944L1.20995 26.1616ZM4.05487 23.2812C4.05487 22.7477 3.45032 22.2499 2.77465 22.2499C1.92118 22.2499 1.3522 22.7833 1.3522 23.5656C1.31663 24.2413 1.8145 24.8459 2.52572 24.917C2.59685 24.917 2.66797 24.917 2.73909 24.917C3.48588 24.917 4.09043 24.4547 4.09043 23.8857V23.2812H4.05487Z" fill="black"/>
<path d="M8.7133 21.0408C10.278 21.0408 11.3804 22.1432 11.3804 23.5656C11.3804 24.9881 10.2424 26.0905 8.7133 26.0905C7.3264 26.1616 6.11731 25.0948 6.04619 23.7079C5.97507 22.321 7.00635 21.1119 8.39325 21.0408C8.49993 21.0408 8.60661 21.0408 8.7133 21.0408ZM8.7133 22.2143C7.96651 22.2143 7.36196 22.8188 7.36196 23.5656C7.36196 24.3124 7.96651 24.917 8.7133 24.917C9.46009 24.917 10.0646 24.3124 10.0646 23.5656C10.1002 22.8544 9.53121 22.2499 8.85554 22.2143C8.78442 22.2143 8.74886 22.2143 8.7133 22.2143Z" fill="black"/>
<path d="M12.1272 21.183H13.4074V21.6098H13.443C13.8697 21.2186 14.4031 21.0408 14.9721 21.0408C16.359 21.0763 17.4614 22.2143 17.4259 23.6012C17.3903 24.9525 16.3234 26.0194 14.9721 26.0549C14.4387 26.0549 13.9053 25.8771 13.4785 25.5571H13.443V27.9397H12.1272V21.183ZM14.7232 22.2143C14.012 22.2143 13.443 22.7122 13.443 23.2456V23.8501C13.443 24.4191 14.012 24.8814 14.7587 24.8814C15.5055 24.8814 16.1101 24.2769 16.0745 23.5301C16.0745 22.8188 15.47 22.2143 14.7232 22.2143Z" fill="black"/>
<path d="M19.9152 23.1033C20.7687 22.9967 21.0531 22.8544 21.0531 22.6055C21.0531 22.2854 20.7331 22.1076 20.1997 22.1076C19.6662 22.0721 19.1328 22.4277 19.0261 22.9611L17.7815 22.7122C17.9593 21.752 18.955 21.0408 20.1997 21.0408C21.5866 21.0408 22.44 21.752 22.44 22.89V25.9127H21.1954V25.3793C20.8042 25.8416 20.1997 26.0905 19.5951 26.0194C18.5638 26.0194 17.8171 25.4504 17.8171 24.5969C17.8171 23.7434 18.386 23.3167 19.9152 23.1033ZM21.1243 23.6012C20.982 23.779 20.7331 23.8857 20.093 23.9924C19.3106 24.1346 19.0261 24.2769 19.0261 24.5614C19.0261 24.8458 19.2751 24.9881 19.7729 24.9881C20.5197 24.9881 21.1243 24.6325 21.1243 24.1702V23.6012Z" fill="black"/>
<path d="M24.7872 25.6637L22.6179 21.183H24.0759L25.534 24.2768H25.5695L26.992 21.183H28.45L25.1783 27.9397H23.6848L24.7872 25.6637Z" fill="black"/>
</svg>
