<svg width="35" height="18" viewBox="0 0 35 18" fill="none" xmlns="http://www.w3.org/2000/svg">
<path d="M34.3 0.557373H0V17.7962H34.3V0.557373Z" fill="#412A8C"/>
<path fill-rule="evenodd" clip-rule="evenodd" d="M7.93399 4.58453C10.4274 4.58453 12.4488 6.64075 12.4488 9.17677C12.4488 11.7133 10.4274 13.769 7.93399 13.769C5.44054 13.769 3.41919 11.7128 3.41919 9.17677C3.41919 6.64027 5.44054 4.58453 7.93399 4.58453ZM7.93399 6.30363C6.37379 6.30363 5.10944 7.58984 5.10944 9.17677C5.10944 10.7637 6.37427 12.0499 7.93399 12.0499C9.49418 12.0499 10.759 10.7637 10.759 9.17677C10.759 7.58984 9.49418 6.30363 7.93399 6.30363ZM26.3662 4.58453C28.8597 4.58453 30.881 6.64075 30.881 9.17677C30.881 11.7133 28.8597 13.769 26.3662 13.769C23.8728 13.769 21.8514 11.7128 21.8514 9.17677C21.8514 6.64027 23.8728 4.58453 26.3662 4.58453ZM26.3662 6.30363C24.806 6.30363 23.5417 7.58984 23.5417 9.17677C23.5417 10.7637 24.8065 12.0499 26.3662 12.0499C27.9264 12.0499 29.1908 10.7637 29.1908 9.17677C29.1908 7.58984 27.9259 6.30363 26.3662 6.30363ZM13.4916 6.36636L16.2347 12.5532C16.2871 12.6715 16.7068 13.7274 18.0159 13.6689L21.3464 5.84153V4.90058H18.4966V6.36636H19.4104L17.4695 11.1458L15.3172 6.36636H16.2766V4.90058H12.6646V6.36636H13.4916Z" fill="white"/>
</svg>
