<svg width="20" height="20" viewBox="0 0 20 20" fill="none" xmlns="http://www.w3.org/2000/svg">
<path d="M12.3334 6.66671L13.3334 7.66671L7.66675 13.3334L6.66675 12.3334L12.3334 6.66671ZM3.33341 3.33337H16.6667C17.5917 3.33337 18.3334 4.07504 18.3334 5.00004V8.33337C17.8914 8.33337 17.4675 8.50897 17.1549 8.82153C16.8423 9.13409 16.6667 9.55801 16.6667 10C16.6667 10.4421 16.8423 10.866 17.1549 11.1786C17.4675 11.4911 17.8914 11.6667 18.3334 11.6667V15C18.3334 15.925 17.5917 16.6667 16.6667 16.6667H3.33341C2.89139 16.6667 2.46746 16.4911 2.1549 16.1786C1.84234 15.866 1.66675 15.4421 1.66675 15V11.6667C2.59175 11.6667 3.33341 10.925 3.33341 10C3.33341 9.55801 3.15782 9.13409 2.84526 8.82153C2.5327 8.50897 2.10878 8.33337 1.66675 8.33337V5.00004C1.66675 4.55801 1.84234 4.13409 2.1549 3.82153C2.46746 3.50897 2.89139 3.33337 3.33341 3.33337ZM3.33341 5.00004V7.11671C3.83981 7.40871 4.26038 7.82893 4.55279 8.33508C4.84521 8.84124 4.99916 9.41549 4.99916 10C4.99916 10.5846 4.84521 11.1588 4.55279 11.665C4.26038 12.1712 3.83981 12.5914 3.33341 12.8834V15H16.6667V12.8834C16.1603 12.5914 15.7398 12.1712 15.4474 11.665C15.155 11.1588 15.001 10.5846 15.001 10C15.001 9.41549 15.155 8.84124 15.4474 8.33508C15.7398 7.82893 16.1603 7.40871 16.6667 7.11671V5.00004H3.33341ZM7.91675 6.66671C8.60841 6.66671 9.16675 7.22504 9.16675 7.91671C9.16675 8.60837 8.60841 9.16671 7.91675 9.16671C7.22508 9.16671 6.66675 8.60837 6.66675 7.91671C6.66675 7.22504 7.22508 6.66671 7.91675 6.66671ZM12.0834 10.8334C12.7751 10.8334 13.3334 11.3917 13.3334 12.0834C13.3334 12.775 12.7751 13.3334 12.0834 13.3334C11.3917 13.3334 10.8334 12.775 10.8334 12.0834C10.8334 11.3917 11.3917 10.8334 12.0834 10.8334Z" fill="black" fill-opacity="0.5"/>
</svg>
