<svg width="35" height="14" viewBox="0 0 35 14" fill="none" xmlns="http://www.w3.org/2000/svg">
<g clip-path="url(#clip0_7_457)">
<path d="M32.8949 8.31601V7.22641V5.04951H29.6284H27.4503V3.95991H32.8949V1.78186H27.4503H24.1838V3.95991V5.04951V7.22641H27.4503H29.6284V8.31601H24.1838V10.4941H29.6284H32.8949V8.31601Z" fill="black"/>
<path d="M23.0953 1.78186H20.9172V10.4929H23.0953V1.78186Z" fill="black"/>
<path d="M11.1177 1.78186V3.95991H17.6507V5.04951H13.2946H11.1177V7.22641V10.4941H13.2946V7.25957L16.5622 10.4941H19.8287L16.4205 7.22641H17.6507H19.8287V5.04951V3.95991V1.78186H17.6507H11.1177Z" fill="black"/>
<path d="M4.58374 7.22641H6.75607V5.05408H4.58374V7.22641ZM5.12911 5.59373H6.21756V6.68218H5.12911V5.59373Z" fill="black"/>
<path d="M3.49519 1.78186H1.58925C1.51723 1.78241 1.44828 1.81114 1.39717 1.86189C1.37175 1.88723 1.35159 1.91735 1.33785 1.95051C1.32412 1.98367 1.31708 2.01922 1.31714 2.05512V10.2208C1.31708 10.2567 1.32412 10.2922 1.33785 10.3254C1.35159 10.3586 1.37175 10.3887 1.39717 10.414C1.44839 10.4645 1.51736 10.4928 1.58925 10.4929H6.76169V8.32058H3.49519V1.78186Z" fill="black"/>
<path d="M9.75618 1.78186H4.58374V3.95991H7.85139V7.22641H10.0237V2.05512C10.0244 1.98318 9.9969 1.91383 9.94712 1.86189C9.89609 1.81171 9.82773 1.78306 9.75618 1.78186Z" fill="black"/>
<path d="M10.0294 8.31604H7.85132V13.2164H10.0294V8.31604Z" fill="black"/>
<path d="M4.3561 0.557373H0.272113C0.200037 0.557674 0.130999 0.58644 0.0800327 0.637406C0.0290666 0.688372 0.000300949 0.75741 0 0.829486L0 4.91347H0.544227V1.36914C0.545718 1.29786 0.575008 1.22999 0.625846 1.18C0.676685 1.13002 0.745046 1.10188 0.81634 1.1016H4.36067L4.3561 0.557373Z" fill="black"/>
<path d="M33.7557 7.63458V11.1789C33.7554 11.251 33.7266 11.32 33.6756 11.371C33.6247 11.422 33.5556 11.4507 33.4835 11.451H29.9392V11.9907H34.0232C34.0593 11.9911 34.0951 11.9844 34.1286 11.971C34.162 11.9575 34.1925 11.9376 34.2182 11.9123C34.244 11.887 34.2644 11.8568 34.2784 11.8236C34.2924 11.7903 34.2997 11.7546 34.2999 11.7186V7.63458H33.7557Z" fill="black"/>
</g>
<defs>
<clipPath id="clip0_7_457">
<rect width="34.3" height="12.6578" fill="white" transform="translate(0 0.557373)"/>
</clipPath>
</defs>
</svg>
