<svg width="36" height="36" viewBox="0 0 36 36" fill="none" xmlns="http://www.w3.org/2000/svg">
<rect width="36" height="36" rx="18" fill="#FFB002"/>
<path d="M9 7.59369C8.22335 7.59369 7.59375 8.22329 7.59375 8.99994C7.59375 9.77659 8.22335 10.4062 9 10.4062L9 7.59369ZM11.5 8.99994L12.8643 8.65887C12.7078 8.03286 12.1453 7.59369 11.5 7.59369L11.5 8.99994ZM25 23.4062C25.7767 23.4062 26.4062 22.7766 26.4062 21.9999C26.4062 21.2233 25.7767 20.5937 25 20.5937V23.4062ZM27 10.9999L28.3643 11.341C28.4693 10.9209 28.3749 10.4758 28.1084 10.1345C27.8419 9.7932 27.433 9.59369 27 9.59369V10.9999ZM25 18.9999V20.4062C25.6453 20.4062 26.2078 19.967 26.3643 19.341L25 18.9999ZM9 10.4062L11.5 10.4062L11.5 7.59369L9 7.59369L9 10.4062ZM10.1357 9.341L10.6357 11.341L13.3643 10.6589L12.8643 8.65887L10.1357 9.341ZM10.6357 11.341L12.6357 19.341L15.3643 18.6589L13.3643 10.6589L10.6357 11.341ZM14 17.5937H13.5V20.4062H14V17.5937ZM13.5 23.4062H25V20.5937H13.5V23.4062ZM10.5938 20.4999C10.5938 22.105 11.8949 23.4062 13.5 23.4062V20.5937C13.4482 20.5937 13.4062 20.5517 13.4062 20.4999H10.5938ZM13.5 17.5937C11.8949 17.5937 10.5938 18.8949 10.5938 20.4999H13.4062C13.4062 20.4482 13.4482 20.4062 13.5 20.4062V17.5937ZM12 12.4062H27V9.59369H12V12.4062ZM25.6357 10.6589L23.6357 18.6589L26.3643 19.341L28.3643 11.341L25.6357 10.6589ZM25 17.5937H14V20.4062H25V17.5937ZM23.5938 25.9999C23.5938 25.7756 23.7756 25.5937 24 25.5937V28.4062C25.3289 28.4062 26.4062 27.3289 26.4062 25.9999H23.5938ZM24 25.5937C24.2244 25.5937 24.4062 25.7756 24.4062 25.9999H21.5938C21.5938 27.3289 22.6711 28.4062 24 28.4062V25.5937ZM24.4062 25.9999C24.4062 26.2243 24.2244 26.4062 24 26.4062V23.5937C22.6711 23.5937 21.5938 24.671 21.5938 25.9999H24.4062ZM24 26.4062C23.7756 26.4062 23.5938 26.2243 23.5938 25.9999H26.4062C26.4062 24.671 25.3289 23.5937 24 23.5937V26.4062ZM13.5938 25.9999C13.5938 25.7756 13.7756 25.5937 14 25.5937V28.4062C15.3289 28.4062 16.4062 27.3289 16.4062 25.9999H13.5938ZM14 25.5937C14.2244 25.5937 14.4062 25.7756 14.4062 25.9999H11.5938C11.5938 27.3289 12.6711 28.4062 14 28.4062V25.5937ZM14.4062 25.9999C14.4062 26.2243 14.2244 26.4062 14 26.4062V23.5937C12.6711 23.5937 11.5938 24.671 11.5938 25.9999H14.4062ZM14 26.4062C13.7756 26.4062 13.5938 26.2243 13.5938 25.9999H16.4062C16.4062 24.671 15.3289 23.5937 14 23.5937V26.4062Z" fill="black"/>
</svg>
